<svg width="314" height="302" viewBox="0 0 314 302" fill="none" xmlns="http://www.w3.org/2000/svg">
<path d="M21.2019 70V1.36H41.2659C58.8339 1.36 69.4899 13.936 69.4899 35.536C69.4899 57.136 58.8339 70 41.2659 70H21.2019ZM36.9459 56.08H40.8819C48.9459 56.08 53.2659 48.976 53.2659 35.536C53.2659 22.192 48.6579 15.28 40.8819 15.28H36.9459V56.08ZM77.4519 70V1.36H111.916V15.28H93.1959V28.432H107.98V42.352H93.1959V56.08H112.78V70H77.4519ZM116.641 64.24L123.937 50.8C126.625 53.776 130.657 56.56 135.073 56.56C139.297 56.56 141.313 53.872 141.313 50.704C141.313 41.296 118.465 40.432 118.465 20.848C118.465 9.136 126.529 0.207994 140.257 0.207994C145.921 0.207994 151.969 1.744 156.673 5.10399L151.009 18.928C148.705 16.912 144.097 14.8 140.641 14.8C136.129 14.8 134.209 17.488 134.209 20.656C134.209 30.832 157.153 30.256 157.153 50.128C157.153 61.264 150.049 71.152 135.841 71.152C129.121 71.152 122.017 68.848 116.641 64.24ZM164.639 70V1.36H180.383V70H164.639ZM188.105 36.016C188.105 14.8 199.913 0.207994 218.441 0.207994C225.065 0.207994 232.361 2.32 237.353 6.256L230.633 19.504C227.945 16.816 223.913 15.088 219.497 15.088C208.937 15.088 204.329 24.208 204.329 35.44C204.329 47.728 210.089 56.08 218.153 56.08C221.225 56.08 224.201 54.928 226.409 53.008V45.04H219.401V31.216H240.233V70H227.945V67.984C227.945 66.928 228.137 65.488 228.137 65.488H227.945C225.353 69.04 220.265 71.152 214.889 71.152C201.545 71.152 188.105 58.384 188.105 36.016ZM248.827 70V1.36H265.435L277.147 33.04C279.067 37.648 280.507 44.464 280.507 44.464H280.891C280.891 44.464 280.027 37.264 280.027 32.944V1.36H294.811V70H278.299L266.491 38.416C264.667 33.712 263.227 26.896 263.227 26.896H262.843C262.843 26.896 263.707 34.096 263.707 38.416V70H248.827ZM0.57425 185L5.08625 116.36H22.5583L28.9903 145.16C29.9503 149.672 31.0063 156.68 31.0063 156.68H31.2943C31.2943 156.68 32.3503 149.672 33.3103 145.16L39.7423 116.36H57.2143L61.6303 185H47.0383L45.2143 154.088C44.8303 148.904 45.4062 142.568 45.4062 142.568H45.0223C45.0223 142.568 43.9663 149.768 42.9103 154.184L38.7823 173.96H23.5183L19.3903 154.184C18.3343 149.768 17.2783 142.568 17.2783 142.568H16.8943C16.8943 142.568 17.4703 148.904 17.0863 154.088L15.1663 185H0.57425ZM80.2888 185V156.872L62.8167 116.36H80.1928L85.4728 132.872C87.0088 137.576 87.9688 142.76 87.9688 142.76H88.3528C88.3528 142.76 89.3127 137.576 90.9448 132.872L96.0328 116.36H113.409L95.9368 156.872V185H80.2888ZM130.967 150.248C130.967 130.28 140.951 115.208 158.999 115.208C177.047 115.208 187.127 130.184 187.127 150.344C187.127 170.6 177.047 186.152 158.999 186.152C140.951 186.152 130.967 170.696 130.967 150.248ZM147.095 150.248C147.095 162.536 150.839 171.08 158.999 171.08C167.159 171.08 170.807 162.44 170.807 150.344C170.807 138.344 167.159 130.28 158.999 130.28C150.839 130.28 147.095 138.44 147.095 150.248ZM201.415 185L189.511 116.36H204.967L210.631 159.272C211.111 162.536 211.015 166.952 211.015 166.952H211.495C211.495 166.952 211.591 162.536 212.071 159.272L218.311 116.36H232.999L239.143 159.272C239.623 162.536 239.815 166.952 239.815 166.952H240.199C240.199 166.952 240.199 162.536 240.679 159.272L246.247 116.36H261.703L249.703 185H231.847L226.471 150.344C225.799 145.928 225.703 142.28 225.703 142.28H225.415C225.415 142.28 225.319 145.928 224.743 150.344L219.559 185H201.415ZM267.343 185V116.36H283.951L295.663 148.04C297.583 152.648 299.023 159.464 299.023 159.464H299.407C299.407 159.464 298.543 152.264 298.543 147.944V116.36H313.327V185H296.815L285.007 153.416C283.183 148.712 281.743 141.896 281.743 141.896H281.359C281.359 141.896 282.223 149.096 282.223 153.416V185H267.343ZM50.7616 266.016C50.7616 244.8 62.5696 230.208 81.0976 230.208C87.7216 230.208 95.0176 232.32 100.01 236.256L93.2896 249.504C90.6016 246.816 86.5696 245.088 82.1536 245.088C71.5936 245.088 66.9856 254.208 66.9856 265.44C66.9856 277.728 72.7456 286.08 80.8096 286.08C83.8816 286.08 86.8576 284.928 89.0656 283.008V275.04H82.0576V261.216H102.89V300H90.6016V297.984C90.6016 296.928 90.7936 295.488 90.7936 295.488H90.6016C88.0096 299.04 82.9216 301.152 77.5456 301.152C64.2016 301.152 50.7616 288.384 50.7616 266.016ZM105.819 300L123.099 231.36H140.187L157.467 300H141.723L138.843 285.408H124.347L121.563 300H105.819ZM126.843 272.448H136.539L133.851 258.816C132.891 254.4 131.835 247.008 131.835 247.008H131.451C131.451 247.008 130.491 254.4 129.531 258.816L126.843 272.448ZM160.277 300L164.789 231.36H182.261L188.693 260.16C189.653 264.672 190.709 271.68 190.709 271.68H190.997C190.997 271.68 192.053 264.672 193.013 260.16L199.445 231.36H216.917L221.333 300H206.741L204.917 269.088C204.533 263.904 205.109 257.568 205.109 257.568H204.725C204.725 257.568 203.669 264.768 202.613 269.184L198.485 288.96H183.221L179.093 269.184C178.037 264.768 176.981 257.568 176.981 257.568H176.597C176.597 257.568 177.173 263.904 176.789 269.088L174.869 300H160.277ZM229.889 300V231.36H264.353V245.28H245.633V258.432H260.417V272.352H245.633V286.08H265.217V300H229.889Z" fill="black"/>
</svg>
