<svg width="40" height="40" viewBox="0 0 53 53" fill="none" xmlns="http://www.w3.org/2000/svg">
<g clip-path="url(#clip0_107_12)">
<path fill-rule="evenodd" clip-rule="evenodd" d="M0 12.4219C0 11.763 0.261746 11.1311 0.727657 10.6652C1.19357 10.1992 1.82548 9.9375 2.48438 9.9375H50.5156C51.1745 9.9375 51.8064 10.1992 52.2723 10.6652C52.7383 11.1311 53 11.763 53 12.4219C53 13.0808 52.7383 13.7127 52.2723 14.1786C51.8064 14.6445 51.1745 14.9062 50.5156 14.9062H2.48438C1.82548 14.9062 1.19357 14.6445 0.727657 14.1786C0.261746 13.7127 0 13.0808 0 12.4219ZM0 26.5C0 25.8411 0.261746 25.2092 0.727657 24.7433C1.19357 24.2774 1.82548 24.0156 2.48438 24.0156H50.5156C51.1745 24.0156 51.8064 24.2774 52.2723 24.7433C52.7383 25.2092 53 25.8411 53 26.5C53 27.1589 52.7383 27.7908 52.2723 28.2567C51.8064 28.7226 51.1745 28.9844 50.5156 28.9844H2.48438C1.82548 28.9844 1.19357 28.7226 0.727657 28.2567C0.261746 27.7908 0 27.1589 0 26.5ZM2.48438 38.0938C1.82548 38.0938 1.19357 38.3555 0.727657 38.8214C0.261746 39.2873 0 39.9192 0 40.5781C0 41.237 0.261746 41.8689 0.727657 42.3348C1.19357 42.8008 1.82548 43.0625 2.48438 43.0625H50.5156C51.1745 43.0625 51.8064 42.8008 52.2723 42.3348C52.7383 41.8689 53 41.237 53 40.5781C53 39.9192 52.7383 39.2873 52.2723 38.8214C51.8064 38.3555 51.1745 38.0938 50.5156 38.0938H2.48438Z" fill="black"/>
</g>
<defs>
<clipPath id="clip0_107_12">
<rect width="53" height="53" fill="white"/>
</clipPath>
</defs>
</svg>
