<svg width="575" height="143" viewBox="0 0 575 143" fill="none" xmlns="http://www.w3.org/2000/svg">
<path d="M194.994 68.976V63.888H210.738V69.072C210.738 76.08 212.562 76.56 214.194 76.56C216.498 76.56 217.458 75.216 217.458 69.072V35.28H204.306V21.36H233.202V68.976C233.202 84.816 223.794 91.152 214.098 91.152C204.21 91.152 194.994 84.432 194.994 68.976ZM240.592 55.248C240.592 35.28 250.576 20.208 268.624 20.208C286.672 20.208 296.752 35.184 296.752 55.344C296.752 75.6 286.672 91.152 268.624 91.152C250.576 91.152 240.592 75.696 240.592 55.248ZM256.72 55.248C256.72 67.536 260.464 76.08 268.624 76.08C276.784 76.08 280.432 67.44 280.432 55.344C280.432 43.344 276.784 35.28 268.624 35.28C260.464 35.28 256.72 43.44 256.72 55.248ZM304.499 90V21.36H320.243V90H304.499ZM330.749 90V21.36H347.357L359.069 53.04C360.989 57.648 362.429 64.464 362.429 64.464H362.813C362.813 64.464 361.949 57.264 361.949 52.944V21.36H376.733V90H360.221L348.413 58.416C346.589 53.712 345.149 46.896 345.149 46.896H344.765C344.765 46.896 345.629 54.096 345.629 58.416V90H330.749Z" fill="black"/>
<path d="M9.408 140.336C8.288 140.336 7.24 140.144 6.264 139.76C5.288 139.36 4.424 138.768 3.672 137.984C2.936 137.2 2.352 136.24 1.92 135.104C1.504 133.968 1.296 132.664 1.296 131.192C1.296 129.72 1.512 128.416 1.944 127.28C2.376 126.128 2.968 125.152 3.72 124.352C4.488 123.552 5.368 122.944 6.36 122.528C7.368 122.112 8.432 121.904 9.552 121.904C10.688 121.904 11.696 122.136 12.576 122.6C13.472 123.048 14.2 123.576 14.76 124.184L12.912 126.44C12.464 125.992 11.968 125.632 11.424 125.36C10.896 125.088 10.296 124.952 9.624 124.952C8.728 124.952 7.92 125.2 7.2 125.696C6.496 126.176 5.944 126.872 5.544 127.784C5.144 128.696 4.944 129.792 4.944 131.072C4.944 132.368 5.128 133.48 5.496 134.408C5.88 135.32 6.416 136.024 7.104 136.52C7.808 137.016 8.624 137.264 9.552 137.264C10.32 137.264 11 137.104 11.592 136.784C12.2 136.448 12.736 136.024 13.2 135.512L15.096 137.72C14.36 138.584 13.52 139.24 12.576 139.688C11.632 140.12 10.576 140.336 9.408 140.336ZM23.262 140.336C22.142 140.336 21.086 140.056 20.094 139.496C19.118 138.936 18.326 138.136 17.718 137.096C17.11 136.04 16.806 134.768 16.806 133.28C16.806 131.792 17.11 130.528 17.718 129.488C18.326 128.432 19.118 127.624 20.094 127.064C21.086 126.504 22.142 126.224 23.262 126.224C24.11 126.224 24.918 126.384 25.686 126.704C26.454 127.024 27.142 127.488 27.75 128.096C28.358 128.688 28.838 129.424 29.19 130.304C29.542 131.168 29.718 132.16 29.718 133.28C29.718 134.768 29.414 136.04 28.806 137.096C28.198 138.136 27.398 138.936 26.406 139.496C25.43 140.056 24.382 140.336 23.262 140.336ZM23.262 137.456C23.87 137.456 24.382 137.288 24.798 136.952C25.23 136.6 25.55 136.112 25.758 135.488C25.982 134.864 26.094 134.128 26.094 133.28C26.094 132.432 25.982 131.696 25.758 131.072C25.55 130.448 25.23 129.968 24.798 129.632C24.382 129.28 23.87 129.104 23.262 129.104C22.654 129.104 22.134 129.28 21.702 129.632C21.286 129.968 20.966 130.448 20.742 131.072C20.534 131.696 20.43 132.432 20.43 133.28C20.43 134.128 20.534 134.864 20.742 135.488C20.966 136.112 21.286 136.6 21.702 136.952C22.134 137.288 22.654 137.456 23.262 137.456ZM32.6694 140V126.56H35.5494L35.8134 128.336H35.8854C36.4774 127.76 37.1254 127.264 37.8294 126.848C38.5334 126.432 39.3414 126.224 40.2534 126.224C41.7094 126.224 42.7654 126.704 43.4214 127.664C44.0774 128.608 44.4054 129.928 44.4054 131.624V140H40.8774V132.056C40.8774 131.016 40.7254 130.288 40.4214 129.872C40.1334 129.456 39.6534 129.248 38.9814 129.248C38.4374 129.248 37.9574 129.376 37.5414 129.632C37.1414 129.888 36.6934 130.264 36.1974 130.76V140H32.6694ZM52.9644 140.336C51.9084 140.336 51.0524 140.128 50.3964 139.712C49.7404 139.28 49.2684 138.688 48.9804 137.936C48.6924 137.184 48.5484 136.312 48.5484 135.32V129.344H46.6524V126.728L48.7404 126.56L49.1484 122.936H52.0524V126.56H55.3884V129.344H52.0524V135.296C52.0524 136.064 52.2124 136.632 52.5324 137C52.8524 137.368 53.3084 137.552 53.9004 137.552C54.1244 137.552 54.3564 137.52 54.5964 137.456C54.8364 137.392 55.0444 137.328 55.2204 137.264L55.8204 139.832C55.4524 139.944 55.0284 140.056 54.5484 140.168C54.0844 140.28 53.5564 140.336 52.9644 140.336ZM63.3926 140.336C62.1446 140.336 61.0166 140.056 60.0086 139.496C59.0006 138.936 58.1926 138.128 57.5846 137.072C56.9926 136.016 56.6966 134.752 56.6966 133.28C56.6966 132.192 56.8646 131.216 57.2006 130.352C57.5526 129.488 58.0246 128.752 58.6166 128.144C59.2246 127.52 59.8966 127.048 60.6326 126.728C61.3846 126.392 62.1606 126.224 62.9606 126.224C64.1926 126.224 65.2246 126.504 66.0566 127.064C66.8886 127.608 67.5126 128.368 67.9286 129.344C68.3606 130.304 68.5766 131.408 68.5766 132.656C68.5766 132.976 68.5606 133.288 68.5286 133.592C68.4966 133.88 68.4566 134.112 68.4086 134.288H60.1286C60.2246 135.008 60.4406 135.616 60.7766 136.112C61.1126 136.608 61.5446 136.984 62.0726 137.24C62.6006 137.48 63.2006 137.6 63.8726 137.6C64.4166 137.6 64.9286 137.528 65.4086 137.384C65.8886 137.224 66.3766 136.992 66.8726 136.688L68.0726 138.848C67.4166 139.296 66.6806 139.656 65.8646 139.928C65.0486 140.2 64.2246 140.336 63.3926 140.336ZM60.0566 131.912H65.5526C65.5526 131.016 65.3446 130.304 64.9286 129.776C64.5286 129.232 63.8886 128.96 63.0086 128.96C62.5446 128.96 62.1046 129.072 61.6886 129.296C61.2726 129.504 60.9206 129.832 60.6326 130.28C60.3446 130.712 60.1526 131.256 60.0566 131.912ZM71.4819 140V126.56H74.3619L74.6259 128.336H74.6979C75.2899 127.76 75.9379 127.264 76.6419 126.848C77.3459 126.432 78.1539 126.224 79.0659 126.224C80.5219 126.224 81.5779 126.704 82.2339 127.664C82.8899 128.608 83.2179 129.928 83.2179 131.624V140H79.6899V132.056C79.6899 131.016 79.5379 130.288 79.2339 129.872C78.9459 129.456 78.4659 129.248 77.7939 129.248C77.2499 129.248 76.7699 129.376 76.3539 129.632C75.9539 129.888 75.5059 130.264 75.0099 130.76V140H71.4819ZM91.7769 140.336C90.7209 140.336 89.8649 140.128 89.2089 139.712C88.5529 139.28 88.0809 138.688 87.7929 137.936C87.5049 137.184 87.3609 136.312 87.3609 135.32V129.344H85.4649V126.728L87.5529 126.56L87.9609 122.936H90.8649V126.56H94.2009V129.344H90.8649V135.296C90.8649 136.064 91.0249 136.632 91.3449 137C91.6649 137.368 92.1209 137.552 92.7129 137.552C92.9369 137.552 93.1689 137.52 93.4089 137.456C93.6489 137.392 93.8569 137.328 94.0329 137.264L94.6329 139.832C94.2649 139.944 93.8409 140.056 93.3609 140.168C92.8969 140.28 92.3689 140.336 91.7769 140.336ZM100.4 140.336C99.5041 140.336 98.5921 140.16 97.6641 139.808C96.7521 139.456 95.9601 139.008 95.2881 138.464L96.8961 136.232C97.4881 136.68 98.0721 137.04 98.6481 137.312C99.2401 137.568 99.8561 137.696 100.496 137.696C101.168 137.696 101.656 137.568 101.96 137.312C102.28 137.04 102.44 136.696 102.44 136.28C102.44 135.944 102.304 135.664 102.032 135.44C101.76 135.2 101.408 134.992 100.976 134.816C100.544 134.624 100.096 134.44 99.6321 134.264C99.0721 134.04 98.5121 133.768 97.9521 133.448C97.4081 133.128 96.9521 132.72 96.5841 132.224C96.2161 131.712 96.0321 131.08 96.0321 130.328C96.0321 129.528 96.2401 128.824 96.6561 128.216C97.0721 127.592 97.6481 127.104 98.3841 126.752C99.1361 126.4 100.024 126.224 101.048 126.224C102.024 126.224 102.888 126.392 103.64 126.728C104.408 127.064 105.064 127.448 105.608 127.88L104.024 130.016C103.544 129.664 103.064 129.384 102.584 129.176C102.12 128.968 101.64 128.864 101.144 128.864C100.52 128.864 100.064 128.984 99.7761 129.224C99.4881 129.464 99.3441 129.776 99.3441 130.16C99.3441 130.48 99.4641 130.752 99.7041 130.976C99.9441 131.184 100.272 131.368 100.688 131.528C101.104 131.688 101.544 131.856 102.008 132.032C102.456 132.192 102.896 132.384 103.328 132.608C103.776 132.816 104.184 133.072 104.552 133.376C104.92 133.68 105.208 134.056 105.416 134.504C105.64 134.936 105.752 135.464 105.752 136.088C105.752 136.872 105.544 137.592 105.128 138.248C104.728 138.888 104.128 139.4 103.328 139.784C102.544 140.152 101.568 140.336 100.4 140.336ZM115.955 140.336C114.835 140.336 113.787 140.144 112.811 139.76C111.835 139.36 110.971 138.768 110.219 137.984C109.483 137.2 108.899 136.24 108.467 135.104C108.051 133.968 107.843 132.664 107.843 131.192C107.843 129.72 108.059 128.416 108.491 127.28C108.923 126.128 109.515 125.152 110.267 124.352C111.035 123.552 111.915 122.944 112.907 122.528C113.915 122.112 114.979 121.904 116.099 121.904C117.235 121.904 118.243 122.136 119.123 122.6C120.019 123.048 120.747 123.576 121.307 124.184L119.459 126.44C119.011 125.992 118.515 125.632 117.971 125.36C117.443 125.088 116.843 124.952 116.171 124.952C115.275 124.952 114.467 125.2 113.747 125.696C113.043 126.176 112.491 126.872 112.091 127.784C111.691 128.696 111.491 129.792 111.491 131.072C111.491 132.368 111.675 133.48 112.043 134.408C112.427 135.32 112.963 136.024 113.651 136.52C114.355 137.016 115.171 137.264 116.099 137.264C116.867 137.264 117.547 137.104 118.139 136.784C118.747 136.448 119.283 136.024 119.747 135.512L121.643 137.72C120.907 138.584 120.067 139.24 119.123 139.688C118.179 140.12 117.123 140.336 115.955 140.336ZM124.193 140V126.56H127.073L127.337 128.936H127.409C127.905 128.056 128.489 127.384 129.161 126.92C129.833 126.456 130.521 126.224 131.225 126.224C131.609 126.224 131.913 126.256 132.137 126.32C132.377 126.368 132.593 126.432 132.785 126.512L132.209 129.56C131.953 129.496 131.721 129.448 131.513 129.416C131.321 129.368 131.073 129.344 130.769 129.344C130.257 129.344 129.713 129.544 129.137 129.944C128.577 130.344 128.105 131.024 127.721 131.984V140H124.193ZM140.127 140.336C138.879 140.336 137.751 140.056 136.743 139.496C135.735 138.936 134.927 138.128 134.319 137.072C133.727 136.016 133.431 134.752 133.431 133.28C133.431 132.192 133.599 131.216 133.935 130.352C134.287 129.488 134.759 128.752 135.351 128.144C135.959 127.52 136.631 127.048 137.367 126.728C138.119 126.392 138.895 126.224 139.695 126.224C140.927 126.224 141.959 126.504 142.791 127.064C143.623 127.608 144.247 128.368 144.663 129.344C145.095 130.304 145.311 131.408 145.311 132.656C145.311 132.976 145.295 133.288 145.263 133.592C145.231 133.88 145.191 134.112 145.143 134.288H136.863C136.959 135.008 137.175 135.616 137.511 136.112C137.847 136.608 138.279 136.984 138.807 137.24C139.335 137.48 139.935 137.6 140.607 137.6C141.151 137.6 141.663 137.528 142.143 137.384C142.623 137.224 143.111 136.992 143.607 136.688L144.807 138.848C144.151 139.296 143.415 139.656 142.599 139.928C141.783 140.2 140.959 140.336 140.127 140.336ZM136.791 131.912H142.287C142.287 131.016 142.079 130.304 141.663 129.776C141.263 129.232 140.623 128.96 139.743 128.96C139.279 128.96 138.839 129.072 138.423 129.296C138.007 129.504 137.655 129.832 137.367 130.28C137.079 130.712 136.887 131.256 136.791 131.912ZM151.036 140.336C150.252 140.336 149.556 140.168 148.948 139.832C148.356 139.48 147.892 139 147.556 138.392C147.236 137.784 147.076 137.096 147.076 136.328C147.076 134.904 147.692 133.8 148.924 133.016C150.156 132.216 152.116 131.672 154.804 131.384C154.788 130.936 154.708 130.544 154.564 130.208C154.42 129.856 154.18 129.576 153.844 129.368C153.524 129.16 153.084 129.056 152.524 129.056C151.9 129.056 151.284 129.176 150.676 129.416C150.068 129.656 149.452 129.968 148.828 130.352L147.58 128C148.108 127.664 148.668 127.368 149.26 127.112C149.852 126.856 150.476 126.648 151.132 126.488C151.788 126.312 152.468 126.224 153.172 126.224C154.308 126.224 155.26 126.448 156.028 126.896C156.796 127.344 157.372 128.008 157.756 128.888C158.14 129.768 158.332 130.856 158.332 132.152V140H155.452L155.212 138.56H155.092C154.516 139.072 153.892 139.496 153.22 139.832C152.548 140.168 151.82 140.336 151.036 140.336ZM152.212 137.576C152.708 137.576 153.156 137.464 153.556 137.24C153.972 137 154.388 136.672 154.804 136.256V133.568C153.716 133.696 152.852 133.88 152.212 134.12C151.572 134.36 151.116 134.648 150.844 134.984C150.572 135.304 150.436 135.664 150.436 136.064C150.436 136.592 150.596 136.976 150.916 137.216C151.252 137.456 151.684 137.576 152.212 137.576ZM166.238 140.336C165.182 140.336 164.326 140.128 163.67 139.712C163.014 139.28 162.542 138.688 162.254 137.936C161.966 137.184 161.822 136.312 161.822 135.32V129.344H159.926V126.728L162.014 126.56L162.422 122.936H165.326V126.56H168.662V129.344H165.326V135.296C165.326 136.064 165.486 136.632 165.806 137C166.126 137.368 166.582 137.552 167.174 137.552C167.398 137.552 167.63 137.52 167.87 137.456C168.11 137.392 168.318 137.328 168.494 137.264L169.094 139.832C168.726 139.944 168.302 140.056 167.822 140.168C167.358 140.28 166.83 140.336 166.238 140.336ZM171.419 140V126.56H174.947V140H171.419ZM173.195 124.376C172.571 124.376 172.075 124.208 171.707 123.872C171.339 123.52 171.155 123.048 171.155 122.456C171.155 121.88 171.339 121.416 171.707 121.064C172.075 120.712 172.571 120.536 173.195 120.536C173.787 120.536 174.275 120.712 174.659 121.064C175.043 121.416 175.235 121.88 175.235 122.456C175.235 123.048 175.043 123.52 174.659 123.872C174.275 124.208 173.787 124.376 173.195 124.376ZM184.325 140.336C183.205 140.336 182.149 140.056 181.157 139.496C180.181 138.936 179.389 138.136 178.781 137.096C178.173 136.04 177.869 134.768 177.869 133.28C177.869 131.792 178.173 130.528 178.781 129.488C179.389 128.432 180.181 127.624 181.157 127.064C182.149 126.504 183.205 126.224 184.325 126.224C185.173 126.224 185.981 126.384 186.749 126.704C187.517 127.024 188.205 127.488 188.812 128.096C189.421 128.688 189.901 129.424 190.253 130.304C190.605 131.168 190.781 132.16 190.781 133.28C190.781 134.768 190.477 136.04 189.869 137.096C189.261 138.136 188.461 138.936 187.469 139.496C186.493 140.056 185.445 140.336 184.325 140.336ZM184.325 137.456C184.933 137.456 185.445 137.288 185.861 136.952C186.293 136.6 186.613 136.112 186.821 135.488C187.045 134.864 187.157 134.128 187.157 133.28C187.157 132.432 187.045 131.696 186.821 131.072C186.613 130.448 186.293 129.968 185.861 129.632C185.445 129.28 184.933 129.104 184.325 129.104C183.717 129.104 183.197 129.28 182.765 129.632C182.349 129.968 182.029 130.448 181.805 131.072C181.597 131.696 181.493 132.432 181.493 133.28C181.493 134.128 181.597 134.864 181.805 135.488C182.029 136.112 182.349 136.6 182.765 136.952C183.197 137.288 183.717 137.456 184.325 137.456ZM193.732 140V126.56H196.612L196.876 128.336H196.948C197.54 127.76 198.188 127.264 198.892 126.848C199.596 126.432 200.404 126.224 201.316 126.224C202.772 126.224 203.828 126.704 204.484 127.664C205.14 128.608 205.468 129.928 205.468 131.624V140H201.94V132.056C201.94 131.016 201.788 130.288 201.484 129.872C201.196 129.456 200.716 129.248 200.044 129.248C199.5 129.248 199.02 129.376 198.604 129.632C198.204 129.888 197.756 130.264 197.26 130.76V140H193.732ZM216.619 140.336C215.499 140.336 214.451 140.144 213.475 139.76C212.499 139.36 211.635 138.768 210.883 137.984C210.147 137.2 209.563 136.24 209.131 135.104C208.715 133.968 208.507 132.664 208.507 131.192C208.507 129.72 208.723 128.416 209.155 127.28C209.587 126.128 210.179 125.152 210.931 124.352C211.699 123.552 212.579 122.944 213.571 122.528C214.579 122.112 215.643 121.904 216.763 121.904C217.899 121.904 218.907 122.136 219.787 122.6C220.683 123.048 221.411 123.576 221.971 124.184L220.123 126.44C219.675 125.992 219.179 125.632 218.635 125.36C218.107 125.088 217.507 124.952 216.835 124.952C215.939 124.952 215.131 125.2 214.411 125.696C213.707 126.176 213.155 126.872 212.755 127.784C212.355 128.696 212.155 129.792 212.155 131.072C212.155 132.368 212.339 133.48 212.707 134.408C213.091 135.32 213.627 136.024 214.315 136.52C215.019 137.016 215.835 137.264 216.763 137.264C217.531 137.264 218.211 137.104 218.803 136.784C219.411 136.448 219.947 136.024 220.411 135.512L222.307 137.72C221.571 138.584 220.731 139.24 219.787 139.688C218.843 140.12 217.787 140.336 216.619 140.336ZM224.857 140V126.56H228.385V140H224.857ZM226.633 124.376C226.009 124.376 225.513 124.208 225.145 123.872C224.777 123.52 224.593 123.048 224.593 122.456C224.593 121.88 224.777 121.416 225.145 121.064C225.513 120.712 226.009 120.536 226.633 120.536C227.225 120.536 227.713 120.712 228.097 121.064C228.481 121.416 228.673 121.88 228.673 122.456C228.673 123.048 228.481 123.52 228.097 123.872C227.713 124.208 227.225 124.376 226.633 124.376ZM232.146 140V126.56H235.026L235.29 128.936H235.362C235.858 128.056 236.442 127.384 237.114 126.92C237.786 126.456 238.474 126.224 239.178 126.224C239.562 126.224 239.866 126.256 240.09 126.32C240.33 126.368 240.546 126.432 240.738 126.512L240.162 129.56C239.906 129.496 239.674 129.448 239.466 129.416C239.274 129.368 239.026 129.344 238.722 129.344C238.21 129.344 237.666 129.544 237.09 129.944C236.53 130.344 236.058 131.024 235.674 131.984V140H232.146ZM247.936 140.336C246.704 140.336 245.592 140.056 244.6 139.496C243.608 138.936 242.824 138.136 242.248 137.096C241.672 136.04 241.384 134.768 241.384 133.28C241.384 131.792 241.696 130.528 242.32 129.488C242.96 128.432 243.8 127.624 244.84 127.064C245.896 126.504 247.032 126.224 248.248 126.224C249.08 126.224 249.816 126.368 250.456 126.656C251.096 126.928 251.664 127.288 252.16 127.736L250.48 129.968C250.16 129.68 249.832 129.464 249.496 129.32C249.16 129.176 248.808 129.104 248.44 129.104C247.752 129.104 247.144 129.28 246.616 129.632C246.104 129.968 245.704 130.448 245.416 131.072C245.144 131.696 245.008 132.432 245.008 133.28C245.008 134.128 245.144 134.864 245.416 135.488C245.704 136.112 246.096 136.6 246.592 136.952C247.104 137.288 247.68 137.456 248.32 137.456C248.8 137.456 249.264 137.352 249.712 137.144C250.16 136.936 250.568 136.68 250.936 136.376L252.328 138.704C251.688 139.264 250.976 139.68 250.192 139.952C249.424 140.208 248.672 140.336 247.936 140.336ZM258.216 140.336C257.384 140.336 256.728 140.168 256.248 139.832C255.768 139.48 255.416 139 255.192 138.392C254.984 137.768 254.88 137.048 254.88 136.232V120.848H258.408V136.376C258.408 136.776 258.48 137.056 258.624 137.216C258.784 137.376 258.944 137.456 259.104 137.456C259.184 137.456 259.256 137.456 259.32 137.456C259.384 137.44 259.472 137.424 259.584 137.408L260.016 140.024C259.808 140.104 259.552 140.176 259.248 140.24C258.96 140.304 258.616 140.336 258.216 140.336ZM268.307 140.336C267.059 140.336 265.931 140.056 264.923 139.496C263.915 138.936 263.107 138.128 262.499 137.072C261.907 136.016 261.611 134.752 261.611 133.28C261.611 132.192 261.779 131.216 262.115 130.352C262.467 129.488 262.939 128.752 263.531 128.144C264.139 127.52 264.811 127.048 265.547 126.728C266.299 126.392 267.075 126.224 267.875 126.224C269.107 126.224 270.139 126.504 270.971 127.064C271.803 127.608 272.427 128.368 272.843 129.344C273.275 130.304 273.491 131.408 273.491 132.656C273.491 132.976 273.475 133.288 273.443 133.592C273.411 133.88 273.371 134.112 273.323 134.288H265.043C265.139 135.008 265.355 135.616 265.691 136.112C266.027 136.608 266.459 136.984 266.987 137.24C267.515 137.48 268.115 137.6 268.787 137.6C269.331 137.6 269.843 137.528 270.323 137.384C270.803 137.224 271.291 136.992 271.787 136.688L272.987 138.848C272.331 139.296 271.595 139.656 270.779 139.928C269.963 140.2 269.139 140.336 268.307 140.336ZM264.971 131.912H270.467C270.467 131.016 270.259 130.304 269.843 129.776C269.443 129.232 268.803 128.96 267.923 128.96C267.459 128.96 267.019 129.072 266.603 129.296C266.187 129.504 265.835 129.832 265.547 130.28C265.259 130.712 265.067 131.256 264.971 131.912ZM275.388 132.848C275.756 132.56 276.092 132.272 276.396 131.984C276.716 131.68 277.06 131.344 277.428 130.976C277.7 130.688 278.012 130.336 278.364 129.92C278.716 129.488 279.092 129.024 279.492 128.528C279.892 128.032 280.292 127.536 280.692 127.04C281.108 126.528 281.5 126.056 281.868 125.624C282.716 124.664 283.54 124.152 284.34 124.088C285.14 124.008 285.98 124.4 286.86 125.264C287.404 125.792 287.964 126.392 288.54 127.064C289.132 127.736 289.708 128.408 290.268 129.08C290.828 129.752 291.348 130.344 291.828 130.856C292.212 131.288 292.62 131.736 293.052 132.2C293.5 132.664 293.972 133.152 294.468 133.664C294.964 134.176 295.484 134.688 296.028 135.2C296.572 135.712 297.124 136.224 297.684 136.736L295.212 139.616C294.652 139.056 294.06 138.448 293.436 137.792C292.812 137.136 292.196 136.464 291.588 135.776C290.996 135.088 290.436 134.456 289.908 133.88C289.428 133.288 288.916 132.664 288.372 132.008C287.844 131.336 287.332 130.696 286.836 130.088C286.34 129.48 285.9 128.968 285.516 128.552C285.244 128.232 284.996 128.032 284.772 127.952C284.564 127.872 284.356 127.888 284.148 128C283.956 128.112 283.748 128.32 283.524 128.624C283.284 128.928 283.004 129.288 282.684 129.704C282.38 130.12 282.052 130.568 281.7 131.048C281.364 131.512 281.036 131.968 280.716 132.416C280.396 132.848 280.1 133.232 279.828 133.568C279.556 133.968 279.284 134.368 279.012 134.768C278.756 135.168 278.524 135.528 278.316 135.848L275.388 132.848ZM312.684 123.56C312.524 124.776 312.316 126.072 312.06 127.448C311.804 128.824 311.46 130.216 311.028 131.624C310.564 133.24 310.02 134.632 309.396 135.8C308.772 136.968 308.084 137.872 307.332 138.512C306.596 139.136 305.788 139.448 304.908 139.448C304.028 139.448 303.212 139.152 302.46 138.56C301.724 137.952 301.132 137.12 300.684 136.064C300.252 135.008 300.036 133.808 300.036 132.464C300.036 131.072 300.316 129.76 300.876 128.528C301.436 127.296 302.212 126.208 303.204 125.264C304.212 124.304 305.38 123.552 306.708 123.008C308.052 122.464 309.5 122.192 311.052 122.192C312.54 122.192 313.876 122.432 315.06 122.912C316.26 123.392 317.284 124.056 318.132 124.904C318.98 125.752 319.628 126.744 320.076 127.88C320.524 129.016 320.748 130.24 320.748 131.552C320.748 133.232 320.404 134.736 319.716 136.064C319.028 137.392 318.004 138.488 316.644 139.352C315.3 140.216 313.62 140.808 311.604 141.128L309.804 138.272C310.268 138.224 310.676 138.168 311.028 138.104C311.38 138.04 311.716 137.968 312.036 137.888C312.804 137.696 313.516 137.424 314.172 137.072C314.844 136.704 315.428 136.256 315.924 135.728C316.42 135.184 316.804 134.552 317.076 133.832C317.364 133.112 317.508 132.32 317.508 131.456C317.508 130.512 317.364 129.648 317.076 128.864C316.788 128.08 316.364 127.4 315.804 126.824C315.244 126.232 314.564 125.784 313.764 125.48C312.964 125.16 312.044 125 311.004 125C309.724 125 308.596 125.232 307.62 125.696C306.644 126.144 305.82 126.728 305.148 127.448C304.476 128.168 303.964 128.944 303.612 129.776C303.276 130.608 303.108 131.4 303.108 132.152C303.108 132.952 303.204 133.624 303.396 134.168C303.588 134.696 303.82 135.096 304.092 135.368C304.38 135.624 304.684 135.752 305.004 135.752C305.34 135.752 305.668 135.584 305.988 135.248C306.324 134.896 306.652 134.368 306.972 133.664C307.292 132.96 307.612 132.072 307.932 131C308.3 129.848 308.612 128.616 308.868 127.304C309.124 125.992 309.308 124.712 309.42 123.464L312.684 123.56ZM330.684 119.6L333.9 120.416C333.324 121.232 332.716 122.056 332.076 122.888C331.452 123.704 330.876 124.4 330.348 124.976L327.996 124.16C328.332 123.744 328.668 123.272 329.004 122.744C329.34 122.216 329.652 121.68 329.94 121.136C330.244 120.576 330.492 120.064 330.684 119.6ZM336.708 121.736L338.988 120.44C339.644 120.92 340.34 121.464 341.076 122.072C341.812 122.664 342.508 123.264 343.164 123.872C343.836 124.48 344.38 125.04 344.796 125.552L342.3 127.04C341.932 126.528 341.436 125.968 340.812 125.36C340.188 124.736 339.516 124.104 338.796 123.464C338.076 122.824 337.38 122.248 336.708 121.736ZM324.444 123.488C325.532 123.456 326.756 123.424 328.116 123.392C329.492 123.36 330.94 123.328 332.46 123.296C333.996 123.248 335.564 123.2 337.164 123.152C338.764 123.104 340.348 123.056 341.916 123.008L341.796 125.384C339.78 125.464 337.74 125.552 335.676 125.648C333.612 125.728 331.644 125.8 329.772 125.864C327.9 125.928 326.228 125.976 324.756 126.008L324.444 123.488ZM323.628 127.352H345.492V129.776H323.628V127.352ZM334.884 130.52L337.116 131.6C336.492 132.032 335.78 132.432 334.98 132.8C334.18 133.152 333.348 133.464 332.484 133.736C331.636 134.008 330.82 134.232 330.036 134.408C329.86 134.152 329.62 133.864 329.316 133.544C329.028 133.224 328.74 132.952 328.452 132.728C329.172 132.584 329.94 132.4 330.756 132.176C331.572 131.952 332.34 131.696 333.06 131.408C333.796 131.12 334.404 130.824 334.884 130.52ZM337.092 133.16L339.372 134.264C338.588 134.888 337.668 135.448 336.612 135.944C335.572 136.44 334.46 136.872 333.276 137.24C332.108 137.608 330.932 137.92 329.748 138.176C329.588 137.872 329.364 137.528 329.076 137.144C328.804 136.744 328.524 136.408 328.236 136.136C329.292 135.96 330.38 135.728 331.5 135.44C332.636 135.152 333.692 134.816 334.668 134.432C335.644 134.048 336.452 133.624 337.092 133.16ZM339.972 135.704L342.492 136.856C341.468 137.912 340.204 138.792 338.7 139.496C337.212 140.2 335.556 140.768 333.732 141.2C331.908 141.632 329.972 141.968 327.924 142.208C327.796 141.84 327.612 141.432 327.372 140.984C327.132 140.552 326.876 140.176 326.604 139.856C328.476 139.696 330.268 139.448 331.98 139.112C333.692 138.776 335.236 138.336 336.612 137.792C338.004 137.232 339.124 136.536 339.972 135.704ZM331.428 124.856L334.284 125.552C333.372 127.984 332.1 130.088 330.468 131.864C328.852 133.624 326.988 135.04 324.876 136.112C324.748 135.92 324.556 135.68 324.3 135.392C324.044 135.104 323.78 134.824 323.508 134.552C323.236 134.28 322.988 134.056 322.764 133.88C324.844 133.016 326.628 131.824 328.116 130.304C329.604 128.768 330.708 126.952 331.428 124.856ZM338.82 127.952C339.3 128.736 339.916 129.496 340.668 130.232C341.42 130.952 342.26 131.608 343.188 132.2C344.116 132.792 345.052 133.28 345.996 133.664C345.804 133.824 345.588 134.04 345.348 134.312C345.108 134.584 344.876 134.864 344.652 135.152C344.444 135.44 344.268 135.696 344.124 135.92C343.116 135.424 342.132 134.816 341.172 134.096C340.212 133.376 339.324 132.568 338.508 131.672C337.708 130.76 337.012 129.816 336.42 128.84L338.82 127.952ZM361.212 137.216H367.356V139.976H361.212V137.216ZM347.7 123.92H356.484V126.728H347.7V123.92ZM359.916 122.36H368.652V141.488H365.772V125.144H362.676V141.656H359.916V122.36ZM355.788 123.92H358.572C358.572 123.92 358.572 124.008 358.572 124.184C358.572 124.344 358.572 124.528 358.572 124.736C358.572 124.944 358.564 125.112 358.548 125.24C358.5 127.8 358.444 129.984 358.38 131.792C358.332 133.584 358.268 135.056 358.188 136.208C358.124 137.36 358.028 138.264 357.9 138.92C357.772 139.576 357.612 140.04 357.42 140.312C357.148 140.712 356.868 141 356.58 141.176C356.292 141.352 355.948 141.48 355.548 141.56C355.196 141.64 354.764 141.68 354.252 141.68C353.74 141.696 353.204 141.688 352.644 141.656C352.628 141.24 352.548 140.752 352.404 140.192C352.26 139.648 352.068 139.176 351.828 138.776C352.308 138.808 352.748 138.832 353.148 138.848C353.548 138.864 353.86 138.872 354.084 138.872C354.26 138.872 354.412 138.84 354.54 138.776C354.668 138.712 354.788 138.592 354.9 138.416C355.028 138.24 355.14 137.872 355.236 137.312C355.332 136.752 355.412 135.936 355.476 134.864C355.54 133.792 355.596 132.416 355.644 130.736C355.692 129.04 355.74 126.976 355.788 124.544V123.92ZM350.556 119.96H353.388C353.388 122.328 353.348 124.592 353.268 126.752C353.204 128.896 353.044 130.912 352.788 132.8C352.532 134.688 352.108 136.424 351.516 138.008C350.94 139.576 350.132 140.96 349.092 142.16C348.948 141.92 348.756 141.664 348.516 141.392C348.276 141.12 348.02 140.864 347.748 140.624C347.476 140.384 347.22 140.192 346.98 140.048C347.732 139.2 348.332 138.248 348.78 137.192C349.244 136.12 349.596 134.952 349.836 133.688C350.092 132.424 350.268 131.072 350.364 129.632C350.46 128.176 350.516 126.64 350.532 125.024C350.548 123.392 350.556 121.704 350.556 119.96Z" fill="#555555"/>
</svg>
